<svg width="418" height="232" viewBox="0 0 418 232" fill="none" xmlns="http://www.w3.org/2000/svg">
<path d="M71.106 54.8403C65.5463 54.8403 47.6488 87.2871 50.3797 92.7651C53.1105 98.2432 89.1341 98.1834 91.8323 92.7651C94.5305 87.3469 76.6656 54.8431 71.106 54.8403Z" fill="url(#paint0_linear_302_900)"/>
<path d="M71.106 6.3374C54.3536 6.3374 0.42704 104.102 8.64957 120.612C16.8721 137.123 125.43 136.932 133.562 120.612C141.695 104.292 87.8557 6.3374 71.106 6.3374ZM112.036 106.286C106.708 116.984 35.5829 117.104 30.1919 106.286C24.8009 95.4688 60.139 31.4103 71.1141 31.4103C82.0893 31.4103 117.365 95.5857 112.036 106.286Z" fill="url(#paint1_linear_302_900)"/>
<path d="M163.319 94.5961C160.607 92.7147 158.457 90.1322 157.098 87.1242C156.843 86.7408 156.703 86.2927 156.693 85.8322C156.689 85.5219 156.756 85.2146 156.889 84.9344C157.023 84.6542 157.219 84.4085 157.463 84.2166C157.918 83.807 158.507 83.5769 159.119 83.5692C159.979 83.5692 160.735 84.0289 161.38 84.9428C162.323 87.1613 163.861 89.0759 165.824 90.4753C167.727 91.8368 170.013 92.5588 172.352 92.537C176.071 92.537 179.088 91.3928 181.402 89.1044C183.715 86.816 184.873 83.8131 184.875 80.0958V42.4511C184.866 42.1265 184.926 41.8038 185.052 41.5042C185.177 41.2046 185.364 40.9349 185.601 40.7131C186.106 40.2485 186.774 40.0021 187.459 40.0276C187.793 40.0119 188.126 40.0646 188.438 40.1825C188.751 40.3003 189.036 40.4809 189.276 40.7131C189.503 40.9408 189.681 41.2124 189.799 41.5113C189.917 41.8101 189.973 42.1299 189.964 42.4511V80.0958C190.008 83.2058 189.227 86.272 187.701 88.982C186.232 91.5842 184.065 93.7245 181.445 95.1618C178.785 96.6379 175.758 97.3759 172.366 97.3759C169.135 97.411 165.973 96.4395 163.319 94.5961Z" fill="black"/>
<path d="M238.124 75.2076C237.901 75.4285 237.636 75.603 237.344 75.7211C237.053 75.8392 236.741 75.8986 236.427 75.8958H205.89C205.89 79.1271 206.55 82.0212 207.87 84.578C209.145 87.0911 211.106 89.1921 213.525 90.6381C215.974 92.1196 218.869 92.8604 222.21 92.8604C224.623 92.9007 227.009 92.3458 229.156 91.2447C231.09 90.2617 232.775 88.8527 234.085 87.1239C234.549 86.6914 235.149 86.4345 235.782 86.3977C236.33 86.4253 236.849 86.6554 237.236 87.0433C237.624 87.4313 237.855 87.9495 237.882 88.4975C237.867 88.8207 237.787 89.1376 237.647 89.4292C237.507 89.7209 237.309 89.9812 237.066 90.1948C235.277 92.3469 233.063 94.1063 230.563 95.3628C228.008 96.6916 225.17 97.3822 222.291 97.3755C218.144 97.3755 214.481 96.487 211.302 94.71C208.166 92.974 205.589 90.3816 203.871 87.2354C202.096 84.0349 201.208 80.333 201.206 76.1297C201.206 71.7124 202.081 67.8482 203.831 64.5371C205.58 61.226 207.91 58.6946 210.818 56.9429C213.613 55.2255 216.829 54.3169 220.11 54.3181C223.28 54.3024 226.403 55.0784 229.197 56.5757C232.058 58.1162 234.446 60.4068 236.103 63.2016C237.882 66.1029 238.798 69.5482 238.85 73.5375C238.856 73.8517 238.794 74.1633 238.669 74.4515C238.543 74.7396 238.358 74.9974 238.124 75.2076V75.2076ZM211.425 62.2414C208.759 64.3975 207.049 67.4955 206.295 71.5356H233.843V70.8883C233.621 68.5939 232.783 66.4022 231.417 64.5453C230.105 62.7709 228.37 61.354 226.368 60.4245C224.413 59.4979 222.277 59.0149 220.112 59.0101C216.986 59.0192 214.09 60.0963 211.425 62.2414Z" fill="black"/>
<path d="M253.514 95.8878C253.175 96.2353 252.739 96.4729 252.263 96.5699C251.787 96.6669 251.293 96.6188 250.844 96.4319C250.396 96.2449 250.014 95.9277 249.748 95.5214C249.482 95.115 249.344 94.6381 249.352 94.1525V39.2087C249.352 38.5659 249.608 37.9495 250.062 37.495C250.517 37.0405 251.133 36.7852 251.776 36.7852C252.419 36.7852 253.035 37.0405 253.49 37.495C253.944 37.9495 254.199 38.5659 254.199 39.2087V94.1525C254.209 94.4732 254.154 94.7925 254.036 95.091C253.918 95.3894 253.74 95.6606 253.514 95.8878Z" fill="black"/>
<path d="M272.094 95.8878C271.755 96.2353 271.319 96.4729 270.843 96.5699C270.367 96.6669 269.873 96.6188 269.425 96.4319C268.976 96.2449 268.595 95.9277 268.329 95.5214C268.062 95.115 267.925 94.6381 267.933 94.1525V39.2087C267.933 38.5659 268.188 37.9495 268.642 37.495C269.097 37.0405 269.713 36.7852 270.356 36.7852C270.999 36.7852 271.615 37.0405 272.07 37.495C272.524 37.9495 272.78 38.5659 272.78 39.2087V94.1525C272.79 94.4732 272.734 94.7925 272.616 95.091C272.498 95.3894 272.321 95.6606 272.094 95.8878V95.8878Z" fill="black"/>
<path d="M317.33 55.2537C317.557 55.4815 317.735 55.7531 317.853 56.0519C317.972 56.3507 318.028 56.6705 318.018 56.9918V92.6237C318.018 96.8741 317.183 100.509 315.513 103.528C313.932 106.457 311.513 108.848 308.567 110.396C305.604 111.957 302.264 112.738 298.549 112.738C296.414 112.753 294.285 112.509 292.208 112.012C290.485 111.626 288.833 110.971 287.313 110.072C286.181 109.371 285.615 108.589 285.615 107.728C285.646 107.452 285.701 107.179 285.778 106.912C285.904 106.427 286.192 106 286.594 105.701C286.944 105.44 287.368 105.298 287.805 105.296C288.142 105.299 288.474 105.383 288.773 105.541C292.218 107.423 295.504 108.365 298.63 108.367C303.1 108.367 306.641 106.967 309.252 104.167C311.863 101.368 313.17 97.5432 313.171 92.6944V89.871C311.767 92.182 309.755 94.0635 307.356 95.311C304.827 96.6841 301.992 97.3935 299.115 97.3728C294.427 97.3728 290.873 95.972 288.452 93.1704C286.031 90.3688 284.819 86.5726 284.816 81.7818V56.9918C284.816 56.349 285.071 55.7326 285.525 55.2781C285.98 54.8236 286.596 54.5683 287.239 54.5683C287.882 54.5683 288.498 54.8236 288.953 55.2781C289.407 55.7326 289.663 56.349 289.663 56.9918V81.0555C289.663 84.9342 290.511 87.87 292.208 89.8629C293.906 91.8557 296.558 92.853 300.164 92.8549C302.385 92.8512 304.568 92.281 306.507 91.1984C308.453 90.1629 310.116 88.6692 311.354 86.8464C312.532 85.1495 313.166 83.1346 313.171 81.0691V56.9972C313.174 56.5166 313.318 56.0473 313.585 55.6479C313.853 55.2485 314.232 54.9367 314.675 54.7513C315.119 54.566 315.607 54.5153 316.079 54.6056C316.551 54.6959 316.987 54.9232 317.33 55.2592V55.2537Z" fill="black"/>
<path d="M341.081 43.0957C340.137 44.2272 339.665 45.7894 339.667 47.7823V56.1027H348.716C349.306 56.1032 349.872 56.3358 350.291 56.7501C350.508 56.9596 350.68 57.2106 350.798 57.4882C350.916 57.7658 350.977 58.0642 350.977 58.3657C350.977 58.6673 350.916 58.9657 350.798 59.2433C350.68 59.5209 350.508 59.7719 350.291 59.9814C349.871 60.395 349.306 60.6266 348.716 60.6261H339.672V94.1527C339.672 94.7954 339.417 95.4118 338.962 95.8663C338.508 96.3208 337.892 96.5762 337.249 96.5762C336.606 96.5762 335.99 96.3208 335.535 95.8663C335.081 95.4118 334.825 94.7954 334.825 94.1527V60.6261H328.928C328.626 60.6332 328.325 60.5757 328.047 60.4575C327.768 60.3393 327.518 60.1631 327.313 59.9406C326.898 59.5213 326.667 58.9552 326.668 58.3657C326.653 58.0598 326.702 57.7541 326.814 57.4687C326.925 57.1832 327.095 56.9245 327.313 56.7093C327.75 56.3019 328.331 56.0839 328.928 56.1027H334.825V47.7823C334.825 44.3895 335.808 41.7602 337.774 39.8943C339.739 38.0284 342.369 37.1 345.662 37.109C347.086 37.1023 348.501 37.3387 349.845 37.8081C351.14 38.2668 351.786 39.0076 351.784 40.0303C351.793 40.3293 351.74 40.6269 351.629 40.9047C351.518 41.1826 351.352 41.4348 351.14 41.646C350.954 41.8471 350.729 42.008 350.479 42.1189C350.229 42.2298 349.958 42.2882 349.685 42.2906C349.073 42.2637 348.472 42.1274 347.908 41.8881C346.99 41.6084 346.039 41.4457 345.08 41.4039C343.355 41.4021 342.022 41.966 341.081 43.0957ZM358.984 48.3888C358.389 47.8775 358.095 47.1349 358.095 46.1666V45.3506C358.095 44.3823 358.404 43.6415 359.022 43.1284C359.641 42.6152 360.489 42.3595 361.568 42.3613C363.722 42.3613 364.8 43.3587 364.8 45.3533V46.1693C364.8 47.1376 364.528 47.8802 363.951 48.3915C363.374 48.9029 362.564 49.1586 361.487 49.1586C360.409 49.1586 359.566 48.9002 358.984 48.3888ZM363.225 95.888C362.885 96.2355 362.449 96.4731 361.974 96.5701C361.498 96.6671 361.004 96.619 360.555 96.4321C360.107 96.2451 359.725 95.9279 359.459 95.5216C359.193 95.1152 359.055 94.6383 359.063 94.1527V56.9922C359.063 56.6739 359.126 56.3587 359.248 56.0647C359.369 55.7707 359.548 55.5035 359.773 55.2785C359.998 55.0534 360.265 54.8749 360.559 54.7531C360.853 54.6313 361.168 54.5686 361.487 54.5686C361.805 54.5686 362.12 54.6313 362.414 54.7531C362.708 54.8749 362.975 55.0534 363.2 55.2785C363.425 55.5035 363.604 55.7707 363.726 56.0647C363.847 56.3587 363.91 56.6739 363.91 56.9922V94.1527C363.919 94.4739 363.862 94.7937 363.743 95.0921C363.624 95.3906 363.445 95.6615 363.217 95.888H363.225Z" fill="black"/>
<path d="M407 58.7271C409.343 61.6647 410.514 65.5561 410.514 70.4013V94.1523C410.524 94.4765 410.463 94.7989 410.338 95.0981C410.213 95.3974 410.026 95.6665 409.788 95.8876C409.336 96.3329 408.726 96.5805 408.091 96.5758C407.77 96.586 407.45 96.5303 407.152 96.4121C406.853 96.2939 406.582 96.1157 406.355 95.8886C406.127 95.6615 405.949 95.3903 405.831 95.0916C405.713 94.793 405.657 94.4733 405.667 94.1523V70.6434C405.667 67.1419 404.793 64.3013 403.043 62.1217C401.293 59.942 398.586 58.854 394.923 58.8577C392.655 58.8678 390.42 59.4104 388.4 60.4417C386.379 61.473 384.629 62.9642 383.29 64.7954C382.034 66.4899 381.354 68.5424 381.351 70.6516V94.1604C381.351 94.8032 381.095 95.4196 380.641 95.8741C380.186 96.3286 379.57 96.5839 378.927 96.5839C378.284 96.5839 377.668 96.3286 377.214 95.8741C376.759 95.4196 376.504 94.8032 376.504 94.1604V57.9601C376.504 57.3173 376.759 56.7009 377.214 56.2464C377.668 55.7919 378.284 55.5366 378.927 55.5366C379.57 55.5366 380.186 55.7919 380.641 56.2464C381.095 56.7009 381.351 57.3173 381.351 57.9601V62.4045C382.801 60.0889 384.887 58.1632 387.607 56.6273C390.145 55.1423 393.028 54.3488 395.968 54.3262C400.98 54.3262 404.657 55.7932 407 58.7271Z" fill="black"/>
<path d="M107.541 212.941C106.636 213.05 105.815 212.859 105.079 212.367C104.391 211.869 103.998 211.215 103.901 210.405L98.5889 166.155C98.4916 165.345 98.6736 164.646 99.1349 164.059C99.6381 163.418 100.295 163.05 101.105 162.952L120.835 160.584C123.504 160.263 125.985 160.594 128.279 161.575C130.566 162.509 132.458 163.974 133.955 165.97C135.493 167.913 136.429 170.266 136.76 173.03C137.001 175.032 136.846 176.96 136.295 178.815C135.738 180.622 134.87 182.249 133.69 183.696C132.504 185.095 131.094 186.232 129.458 187.105L127.748 186.15C129.414 186.337 130.951 186.853 132.358 187.699C133.759 188.498 134.956 189.611 135.949 191.039C136.937 192.419 137.575 194.107 137.863 196.103C138.17 197.855 138.458 199.247 138.726 200.278C138.995 201.309 139.31 202.118 139.67 202.703C140.025 203.24 140.484 203.644 141.048 203.915C141.767 204.264 142.265 204.784 142.541 205.476C142.865 206.163 142.829 206.868 142.433 207.592C142.198 208.056 141.83 208.414 141.329 208.668C140.822 208.874 140.303 208.984 139.773 208.999C139.243 209.015 138.774 208.926 138.364 208.734C137.55 208.396 136.737 207.865 135.924 207.141C135.107 206.369 134.365 205.225 133.7 203.71C133.034 202.194 132.538 200.078 132.212 197.362C132.029 195.837 131.639 194.602 131.043 193.659C130.446 192.715 129.705 191.982 128.821 191.46C127.936 190.938 126.979 190.617 125.95 190.499C124.92 190.381 123.881 190.385 122.833 190.511L106.891 192.425L107.595 191.035L109.835 209.693C109.932 210.503 109.777 211.223 109.369 211.852C108.961 212.481 108.352 212.844 107.541 212.941ZM106.273 187.278L123.788 185.175C125.158 184.914 126.388 184.283 127.476 183.282C128.612 182.275 129.47 180.964 130.05 179.347C130.671 177.677 130.864 175.865 130.63 173.911C130.327 171.385 129.265 169.386 127.444 167.912C125.671 166.433 123.569 165.839 121.139 166.131L104.268 168.156L104.677 166.729L107.286 188.461L106.273 187.278ZM168.384 206.362C164.571 206.82 161.138 206.41 158.084 205.133C155.03 203.856 152.524 201.909 150.566 199.292C148.65 196.621 147.469 193.427 147.022 189.71C146.525 185.564 146.912 181.94 148.183 178.838C149.496 175.683 151.372 173.186 153.81 171.346C156.29 169.453 159.007 168.329 161.962 167.974C164.154 167.711 166.324 167.861 168.47 168.426C170.617 168.99 172.571 169.964 174.332 171.348C176.088 172.684 177.574 174.391 178.791 176.469C180.001 178.499 180.791 180.846 181.159 183.509C181.25 184.271 181.042 184.949 180.533 185.542C180.024 186.135 179.388 186.477 178.625 186.568L150.388 189.958L148.509 185.18L176.032 181.876L175.008 183.014L174.819 181.442C174.394 179.51 173.526 177.923 172.217 176.678C170.949 175.38 169.459 174.447 167.747 173.879C166.083 173.305 164.369 173.124 162.606 173.336C161.176 173.507 159.778 173.941 158.411 174.637C157.086 175.279 155.921 176.241 154.914 177.522C153.95 178.75 153.216 180.288 152.712 182.138C152.257 183.981 152.178 186.142 152.475 188.62C152.807 191.384 153.647 193.749 154.995 195.714C156.391 197.674 158.164 199.153 160.314 200.152C162.459 201.103 164.865 201.418 167.534 201.098C169.202 200.898 170.63 200.509 171.818 199.931C173.005 199.353 174.015 198.701 174.846 197.972C175.671 197.196 176.354 196.438 176.893 195.696C177.461 195.193 178.031 194.907 178.603 194.838C179.318 194.752 179.918 194.922 180.404 195.347C180.938 195.766 181.245 196.31 181.325 196.977C181.423 197.787 181.127 198.548 180.439 199.259C179.282 200.896 177.628 202.424 175.478 203.843C173.322 205.214 170.957 206.053 168.384 206.362ZM231.284 159.942C232.047 159.85 232.722 160.035 233.309 160.496C233.944 160.952 234.313 161.609 234.416 162.467C234.439 162.657 234.44 162.875 234.421 163.119C234.444 163.309 234.42 163.506 234.347 163.708L227.14 196.698C226.976 197.346 226.628 197.871 226.096 198.273C225.612 198.67 225.058 198.882 224.432 198.908C223.33 198.992 222.422 198.473 221.707 197.35L209.988 175.842L211.443 175.884L205.98 199.238C205.599 200.493 204.839 201.212 203.701 201.397C203.087 201.519 202.474 201.448 201.862 201.183C201.251 200.918 200.812 200.487 200.547 199.89L185.522 169.569C185.327 169.157 185.207 168.761 185.161 168.38C185.07 167.617 185.252 166.918 185.707 166.284C186.163 165.649 186.844 165.277 187.749 165.168C188.321 165.1 188.862 165.18 189.373 165.408C189.884 165.637 190.272 166.05 190.537 166.647L203.569 193.654L202.059 193.762L207.849 171.312C208.182 170.064 208.992 169.362 210.279 169.208C210.946 169.128 211.491 169.231 211.912 169.519C212.375 169.754 212.736 170.145 212.996 170.694L224.292 191.093L222.522 191.451L228.782 162.055C229.068 160.812 229.902 160.108 231.284 159.942ZM251.448 192.692C251.545 193.502 251.342 194.227 250.839 194.868C250.384 195.503 249.751 195.869 248.94 195.966C248.083 196.069 247.357 195.866 246.764 195.357C246.171 194.848 245.826 194.189 245.729 193.378L241.919 161.638C241.821 160.828 242.003 160.129 242.465 159.542C242.968 158.902 243.625 158.533 244.435 158.436C245.245 158.338 245.947 158.544 246.539 159.053C247.174 159.509 247.54 160.142 247.638 160.952L251.448 192.692ZM243.86 153.646C242.668 153.789 241.758 153.657 241.129 153.249C240.5 152.841 240.125 152.136 240.005 151.136L239.885 150.135C239.765 149.134 239.986 148.358 240.548 147.807C241.111 147.256 241.964 146.912 243.107 146.775C244.251 146.637 245.138 146.773 245.767 147.181C246.396 147.589 246.771 148.293 246.891 149.294L247.011 150.294C247.131 151.295 246.91 152.071 246.348 152.622C245.833 153.167 245.004 153.509 243.86 153.646ZM275.896 154.296C279.137 153.907 281.767 154.268 283.786 155.379C285.805 156.491 287.33 158.12 288.361 160.269C289.44 162.411 290.146 164.865 290.478 167.629L292.889 187.717C292.986 188.527 292.783 189.252 292.28 189.893C291.825 190.528 291.192 190.894 290.382 190.991C289.571 191.088 288.846 190.885 288.205 190.382C287.613 189.873 287.267 189.214 287.17 188.403L284.776 168.459C284.558 166.648 284.078 165.062 283.334 163.7C282.633 162.286 281.587 161.227 280.197 160.524C278.85 159.767 277.079 159.52 274.887 159.783C272.886 160.024 271.105 160.697 269.546 161.802C267.981 162.861 266.787 164.188 265.963 165.786C265.134 167.336 264.828 169.016 265.045 170.827L267.44 190.772C267.537 191.582 267.334 192.308 266.831 192.948C266.375 193.583 265.742 193.949 264.932 194.046C264.122 194.144 263.397 193.941 262.756 193.437C262.163 192.928 261.818 192.269 261.721 191.459L257.979 160.29C257.882 159.48 258.064 158.782 258.525 158.194C259.028 157.554 259.685 157.185 260.495 157.088C261.353 156.985 262.078 157.188 262.671 157.697C263.259 158.158 263.601 158.794 263.698 159.604L264.307 164.679L263.066 166.424C263.156 165.156 263.555 163.851 264.264 162.509C264.968 161.119 265.903 159.847 267.069 158.691C268.236 157.536 269.571 156.578 271.075 155.817C272.574 155.009 274.181 154.502 275.896 154.296ZM327.922 132.822C328.733 132.724 329.434 132.93 330.027 133.439C330.662 133.895 331.028 134.528 331.125 135.338L336.781 182.447C336.878 183.258 336.675 183.983 336.172 184.624C335.716 185.258 335.083 185.624 334.273 185.722C333.415 185.825 332.69 185.622 332.097 185.113C331.504 184.604 331.159 183.944 331.062 183.134L330.247 176.343L331.545 175.679C331.682 176.823 331.471 178.081 330.91 179.454C330.344 180.779 329.507 182.064 328.4 183.309C327.292 184.553 325.924 185.636 324.294 186.557C322.711 187.472 320.943 188.047 318.989 188.282C315.796 188.665 312.789 188.18 309.968 186.827C307.194 185.468 304.87 183.426 302.996 180.702C301.17 177.972 300.033 174.749 299.587 171.031C299.135 167.266 299.473 163.842 300.601 160.757C301.778 157.667 303.555 155.157 305.934 153.228C308.307 151.251 311.067 150.074 314.212 149.696C316.214 149.456 318.136 149.563 319.98 150.019C321.823 150.474 323.457 151.197 324.881 152.186C326.353 153.17 327.553 154.307 328.481 155.597C329.41 156.888 329.957 158.224 330.123 159.606L328.213 159.4L325.406 136.024C325.309 135.214 325.491 134.515 325.952 133.928C326.408 133.293 327.065 132.925 327.922 132.822ZM318.998 182.914C321.381 182.628 323.406 181.781 325.074 180.372C326.784 178.91 328.013 177.07 328.762 174.853C329.553 172.583 329.789 170.113 329.468 167.444C329.142 164.728 328.329 162.384 327.029 160.413C325.776 158.436 324.149 156.963 322.147 155.995C320.188 154.973 318.016 154.606 315.634 154.892C313.298 155.172 311.276 156.043 309.566 157.506C307.898 158.914 306.666 160.73 305.869 162.953C305.072 165.176 304.837 167.646 305.163 170.362C305.478 172.983 306.288 175.303 307.594 177.322C308.894 179.293 310.524 180.789 312.484 181.811C314.491 182.827 316.662 183.195 318.998 182.914Z" fill="#00A4DC"/>
<path d="M90.1143 125C90.1143 123.164 100.832 117.253 102.641 118.154C104.451 119.055 104.431 130.955 102.641 131.846C100.852 132.737 90.1152 126.839 90.1143 125Z" fill="black"/>
<path d="M74.0934 125C74.0934 119.469 106.386 101.657 111.839 104.373C117.293 107.089 117.23 142.946 111.839 145.632C106.449 148.319 74.0934 130.536 74.0934 125ZM107.107 138.522C110.641 136.762 110.68 113.269 107.107 111.489C103.534 109.709 82.3752 121.38 82.3752 125.005C82.3752 128.63 103.573 140.282 107.107 138.522Z" fill="black"/>
<path d="M136.114 125C136.114 123.164 146.832 117.253 148.641 118.154C150.451 119.055 150.431 130.955 148.641 131.846C146.852 132.737 136.115 126.839 136.114 125Z" fill="black"/>
<path d="M120.093 125C120.093 119.469 152.386 101.657 157.839 104.373C163.293 107.089 163.23 142.946 157.839 145.632C152.449 148.319 120.093 130.536 120.093 125ZM153.107 138.522C156.641 136.762 156.68 113.269 153.107 111.489C149.534 109.709 128.375 121.38 128.375 125.005C128.375 128.63 149.573 140.282 153.107 138.522Z" fill="black"/>
<defs>
<linearGradient id="paint0_linear_302_900" x1="29.9879" y1="58.0173" x2="134.95" y2="118.616" gradientUnits="userSpaceOnUse">
<stop stop-color="#AA5CC3"/>
<stop offset="1" stop-color="#00A4DC"/>
</linearGradient>
<linearGradient id="paint1_linear_302_900" x1="29.9879" y1="58.0172" x2="134.95" y2="118.616" gradientUnits="userSpaceOnUse">
<stop stop-color="#AA5CC3"/>
<stop offset="1" stop-color="#00A4DC"/>
</linearGradient>
</defs>
</svg>
