<svg width="418" height="232" viewBox="0 0 418 232" fill="none" xmlns="http://www.w3.org/2000/svg">
<path d="M71.1032 54.8423C65.5436 54.8423 47.6462 87.2888 50.377 92.7668C53.1079 98.2448 89.1311 98.185 91.8293 92.7668C94.5276 87.3486 76.6628 54.845 71.1032 54.8423Z" fill="url(#paint0_linear_302_901)"/>
<path d="M71.1032 6.33984C54.3509 6.33984 0.424783 104.104 8.64725 120.614C16.8697 137.124 125.426 136.934 133.559 120.614C141.692 104.294 87.8528 6.33984 71.1032 6.33984ZM112.033 106.288C106.705 116.985 35.5804 117.105 30.1894 106.288C24.7984 95.4705 60.1363 31.4125 71.1114 31.4125C82.0864 31.4125 117.362 95.5875 112.033 106.288Z" fill="url(#paint1_linear_302_901)"/>
<path d="M163.316 95.4054C160.604 93.524 158.454 90.9415 157.095 87.9336C156.84 87.5502 156.699 87.102 156.69 86.6416C156.685 86.3313 156.752 86.024 156.886 85.7438C157.019 85.4636 157.216 85.2179 157.46 85.026C157.914 84.6157 158.503 84.3855 159.116 84.3786C159.976 84.3786 160.732 84.8383 161.376 85.7522C162.32 87.9707 163.858 89.8853 165.821 91.2846C167.723 92.6462 170.009 93.3681 172.349 93.3463C176.068 93.3463 179.084 92.2021 181.398 89.9137C183.712 87.6253 184.87 84.6225 184.871 80.9052V43.2499C184.863 42.9254 184.923 42.6026 185.048 42.303C185.173 42.0034 185.361 41.7337 185.598 41.5119C186.102 41.0473 186.77 40.801 187.455 40.8264C187.789 40.8107 188.122 40.8634 188.435 40.9813C188.747 41.0992 189.032 41.2797 189.272 41.5119C189.499 41.7397 189.677 42.0113 189.795 42.3101C189.914 42.6089 189.97 42.9287 189.96 43.2499V80.8943C190.005 84.0043 189.224 87.0704 187.697 89.7805C186.228 92.3827 184.062 94.523 181.442 95.9602C178.783 97.449 175.757 98.1933 172.362 98.1933C169.13 98.2261 165.968 97.2516 163.316 95.4054V95.4054Z" fill="white"/>
<path d="M238.12 76.0177C237.897 76.2385 237.632 76.413 237.34 76.5311C237.049 76.6492 236.737 76.7086 236.423 76.7058H205.889C205.889 79.9371 206.548 82.8312 207.866 85.388C209.142 87.9011 211.102 90.002 213.521 91.4481C215.971 92.9314 218.866 93.6721 222.206 93.6703C224.619 93.7107 227.005 93.1557 229.153 92.0546C231.086 91.0716 232.771 89.6626 234.081 87.9339C234.545 87.5013 235.145 87.2444 235.778 87.2076C236.326 87.2352 236.845 87.4653 237.233 87.8533C237.621 88.2413 237.851 88.7595 237.878 89.3074C237.864 89.6308 237.784 89.9479 237.644 90.2396C237.504 90.5313 237.306 90.7916 237.062 91.0047C235.273 93.1568 233.059 94.9163 230.559 96.1726C228.005 97.5043 225.167 98.1977 222.287 98.1936C218.14 98.1936 214.477 97.3051 211.299 95.528C208.163 93.7913 205.586 91.199 203.868 88.0535C202.092 84.8512 201.204 81.1494 201.202 76.9479C201.202 72.5307 202.077 68.6665 203.827 65.3554C205.577 62.0443 207.906 59.5129 210.815 57.7612C213.609 56.0438 216.826 55.1352 220.106 55.1365C223.276 55.1208 226.399 55.8968 229.193 57.394C232.054 58.9346 234.442 61.2251 236.099 64.0199C237.878 66.9212 238.794 70.3665 238.847 74.3558C238.851 74.6685 238.788 74.9786 238.663 75.2652C238.538 75.5519 238.353 75.8084 238.12 76.0177V76.0177ZM211.421 63.0516C208.756 65.2058 207.046 68.3066 206.291 72.3539H233.839V71.7065C233.62 69.409 232.781 67.214 231.413 65.3554C230.101 63.581 228.366 62.1641 226.365 61.2346C224.409 60.3081 222.273 59.8251 220.109 59.8203C216.983 59.8203 214.087 60.8974 211.421 63.0516Z" fill="white"/>
<path d="M253.51 96.6974C253.171 97.0449 252.735 97.2825 252.259 97.3795C251.783 97.4765 251.289 97.4284 250.84 97.2415C250.392 97.0545 250.01 96.7374 249.744 96.331C249.478 95.9246 249.34 95.4477 249.348 94.9621V40.0187C249.348 39.376 249.604 38.7595 250.058 38.305C250.513 37.8505 251.129 37.5952 251.772 37.5952C252.415 37.5952 253.031 37.8505 253.486 38.305C253.94 38.7595 254.195 39.376 254.195 40.0187V94.9621C254.205 95.2828 254.15 95.6022 254.032 95.9006C253.914 96.199 253.736 96.4702 253.51 96.6974V96.6974Z" fill="white"/>
<path d="M272.09 96.6974C271.751 97.0449 271.315 97.2825 270.839 97.3795C270.363 97.4765 269.869 97.4284 269.421 97.2415C268.972 97.0545 268.59 96.7374 268.324 96.331C268.058 95.9246 267.92 95.4477 267.928 94.9621V40.0187C267.928 39.376 268.184 38.7595 268.638 38.305C269.093 37.8505 269.709 37.5952 270.352 37.5952C270.995 37.5952 271.611 37.8505 272.066 38.305C272.52 38.7595 272.775 39.376 272.775 40.0187V94.9621C272.786 95.2828 272.73 95.6022 272.612 95.9006C272.494 96.199 272.317 96.4702 272.09 96.6974V96.6974Z" fill="white"/>
<path d="M317.326 56.0638C317.553 56.2916 317.73 56.5632 317.849 56.862C317.967 57.1609 318.023 57.4807 318.014 57.8019V93.4335C318.014 97.6839 317.179 101.319 315.509 104.338C313.927 107.267 311.509 109.658 308.562 111.206C305.599 112.767 302.26 113.548 298.544 113.548C296.409 113.563 294.28 113.318 292.204 112.819C290.48 112.435 288.828 111.781 287.308 110.882C286.177 110.18 285.611 109.399 285.611 108.537C285.642 108.261 285.697 107.988 285.774 107.722C285.9 107.237 286.188 106.81 286.59 106.511C286.94 106.25 287.364 106.108 287.801 106.106C288.138 106.11 288.47 106.192 288.769 106.348C292.214 108.232 295.5 109.175 298.626 109.177C303.096 109.177 306.637 107.777 309.25 104.977C311.863 102.177 313.169 98.353 313.167 93.5042V90.6809C311.762 92.9918 309.751 94.8733 307.352 96.1208C304.823 97.4939 301.987 98.2033 299.11 98.1826C294.426 98.1826 290.872 96.7818 288.448 93.9802C286.023 91.1787 284.811 87.3825 284.811 82.5917V57.8019C284.811 57.1592 285.067 56.5427 285.521 56.0882C285.976 55.6337 286.592 55.3784 287.235 55.3784C287.878 55.3784 288.494 55.6337 288.948 56.0882C289.403 56.5427 289.658 57.1592 289.658 57.8019V81.8736C289.658 85.7523 290.507 88.6881 292.204 90.6809C293.901 92.6737 296.553 93.6711 300.16 93.6729C302.381 93.6692 304.564 93.099 306.503 92.0164C308.448 90.9809 310.112 89.4872 311.35 87.6645C312.528 85.9675 313.161 83.9527 313.167 81.8872V57.8019C313.169 57.3212 313.313 56.8519 313.581 56.4526C313.848 56.0532 314.227 55.7414 314.671 55.556C315.114 55.3707 315.603 55.32 316.075 55.4103C316.547 55.5006 316.982 55.7279 317.326 56.0638V56.0638Z" fill="white"/>
<path d="M341.077 43.9056C340.132 45.0371 339.66 46.5993 339.662 48.5921V56.9125H348.712C349.301 56.9112 349.868 57.144 350.286 57.5599C350.503 57.7694 350.676 58.0204 350.793 58.298C350.911 58.5756 350.972 58.874 350.972 59.1755C350.972 59.477 350.911 59.7755 350.793 60.0531C350.676 60.3306 350.503 60.5817 350.286 60.7912C349.867 61.2052 349.301 61.4369 348.712 61.4358H339.668V94.9622C339.668 95.6049 339.412 96.2213 338.958 96.6758C338.503 97.1303 337.887 97.3857 337.244 97.3857C336.601 97.3857 335.985 97.1303 335.53 96.6758C335.076 96.2213 334.821 95.6049 334.821 94.9622V61.4358H328.924C328.621 61.4429 328.321 61.3855 328.042 61.2673C327.763 61.1491 327.513 60.9729 327.308 60.7504C326.894 60.3311 326.662 59.765 326.663 59.1755C326.648 58.8696 326.698 58.5639 326.809 58.2785C326.92 57.993 327.09 57.7342 327.308 57.5191C327.746 57.1117 328.326 56.8936 328.924 56.9125H334.821V48.5921C334.821 45.2012 335.803 42.5719 337.769 40.7042C339.735 38.8365 342.364 37.9081 345.657 37.919C347.087 37.9062 348.508 38.138 349.859 38.6044C351.152 39.0632 351.798 39.8039 351.796 40.8266C351.804 41.1256 351.751 41.4232 351.641 41.701C351.53 41.9789 351.363 42.2311 351.151 42.4423C350.966 42.6434 350.741 42.8043 350.49 42.9152C350.24 43.0261 349.97 43.0845 349.696 43.0869C349.085 43.06 348.483 42.9237 347.92 42.6843C347.001 42.4047 346.051 42.242 345.091 42.2002C343.356 42.2074 342.018 42.7759 341.077 43.9056ZM358.979 49.1987C358.384 48.6873 358.09 47.9448 358.09 46.9765V46.1605C358.09 45.1922 358.399 44.4514 359.018 43.9383C359.636 43.4251 360.484 43.1694 361.563 43.1712C363.718 43.1712 364.795 44.1685 364.795 46.1632V46.9792C364.795 47.9475 364.523 48.69 363.946 49.2014C363.369 49.7127 362.559 49.9684 361.482 49.9684C360.405 49.9684 359.561 49.71 358.979 49.1987ZM363.22 96.6975C362.88 97.045 362.445 97.2826 361.969 97.3796C361.493 97.4766 360.999 97.4285 360.55 97.2415C360.102 97.0546 359.72 96.7374 359.454 96.3311C359.188 95.9247 359.05 95.4478 359.058 94.9622V57.8019C359.058 57.4837 359.121 57.1685 359.243 56.8745C359.365 56.5805 359.543 56.3133 359.768 56.0883C359.993 55.8632 360.26 55.6847 360.554 55.5629C360.848 55.4411 361.164 55.3784 361.482 55.3784C361.8 55.3784 362.115 55.4411 362.409 55.5629C362.703 55.6847 362.97 55.8632 363.195 56.0883C363.421 56.3133 363.599 56.5805 363.721 56.8745C363.843 57.1685 363.905 57.4837 363.905 57.8019V94.9622C363.914 95.2835 363.857 95.6032 363.738 95.9016C363.619 96.2001 363.44 96.471 363.212 96.6975H363.22Z" fill="white"/>
<path d="M406.995 59.5371C409.338 62.4747 410.509 66.3661 410.509 71.2112V94.962C410.518 95.2863 410.458 95.6087 410.333 95.9079C410.208 96.2071 410.02 96.4762 409.783 96.6974C409.331 97.1427 408.72 97.3902 408.086 97.3855C407.765 97.3957 407.445 97.34 407.146 97.2218C406.848 97.1036 406.577 96.9255 406.349 96.6984C406.122 96.4713 405.944 96.2 405.826 95.9014C405.708 95.6027 405.652 95.283 405.662 94.962V71.4533C405.662 67.9518 404.787 65.1113 403.038 62.9317C401.288 60.7521 398.581 59.6641 394.918 59.6677C392.65 59.6778 390.415 60.2204 388.395 61.2517C386.374 62.283 384.624 63.7742 383.285 65.6054C382.029 67.2997 381.349 69.3522 381.346 71.4615V94.9702C381.346 95.6129 381.09 96.2294 380.636 96.6839C380.181 97.1383 379.565 97.3937 378.922 97.3937C378.279 97.3937 377.663 97.1383 377.209 96.6839C376.754 96.2294 376.499 95.6129 376.499 94.9702V58.7701C376.499 58.1274 376.754 57.5109 377.209 57.0564C377.663 56.6019 378.279 56.3466 378.922 56.3466C379.565 56.3466 380.181 56.6019 380.636 57.0564C381.09 57.5109 381.346 58.1274 381.346 58.7701V63.2145C382.796 60.8989 384.882 58.9732 387.602 57.4373C390.142 55.9513 393.028 55.1578 395.971 55.1362C400.978 55.1362 404.652 56.6032 406.995 59.5371Z" fill="white"/>
<path d="M107.541 212.941C106.636 213.05 105.815 212.859 105.079 212.367C104.391 211.869 103.998 211.215 103.901 210.405L98.5889 166.155C98.4916 165.345 98.6736 164.646 99.1349 164.059C99.6381 163.418 100.295 163.05 101.105 162.952L120.835 160.584C123.504 160.263 125.985 160.594 128.279 161.575C130.566 162.509 132.458 163.974 133.955 165.97C135.493 167.913 136.429 170.266 136.76 173.03C137.001 175.032 136.846 176.96 136.295 178.815C135.738 180.622 134.87 182.249 133.69 183.696C132.504 185.095 131.094 186.232 129.458 187.105L127.748 186.15C129.414 186.337 130.951 186.853 132.358 187.699C133.759 188.498 134.956 189.611 135.949 191.039C136.937 192.419 137.575 194.107 137.863 196.103C138.17 197.855 138.458 199.247 138.726 200.278C138.995 201.309 139.31 202.118 139.67 202.703C140.025 203.24 140.484 203.644 141.048 203.915C141.767 204.264 142.265 204.784 142.541 205.476C142.865 206.163 142.829 206.868 142.433 207.592C142.198 208.056 141.83 208.414 141.329 208.668C140.822 208.874 140.303 208.984 139.773 208.999C139.243 209.015 138.774 208.926 138.364 208.734C137.55 208.396 136.737 207.865 135.924 207.141C135.107 206.369 134.365 205.225 133.7 203.71C133.034 202.194 132.538 200.078 132.212 197.362C132.029 195.837 131.639 194.602 131.043 193.659C130.446 192.715 129.705 191.982 128.821 191.46C127.936 190.938 126.979 190.617 125.95 190.499C124.92 190.381 123.881 190.385 122.833 190.511L106.891 192.425L107.595 191.035L109.835 209.693C109.932 210.503 109.777 211.223 109.369 211.852C108.961 212.481 108.352 212.844 107.541 212.941ZM106.273 187.278L123.788 185.175C125.158 184.914 126.388 184.283 127.476 183.282C128.612 182.275 129.47 180.964 130.05 179.347C130.671 177.677 130.864 175.865 130.63 173.911C130.327 171.385 129.265 169.386 127.444 167.912C125.671 166.433 123.569 165.839 121.139 166.131L104.268 168.156L104.677 166.729L107.286 188.461L106.273 187.278ZM168.384 206.362C164.571 206.82 161.138 206.41 158.084 205.133C155.03 203.856 152.524 201.909 150.566 199.292C148.65 196.621 147.469 193.427 147.022 189.71C146.525 185.564 146.912 181.94 148.183 178.838C149.496 175.683 151.372 173.186 153.81 171.346C156.29 169.453 159.007 168.329 161.962 167.974C164.154 167.711 166.324 167.861 168.47 168.426C170.617 168.99 172.571 169.964 174.332 171.348C176.088 172.684 177.574 174.391 178.791 176.469C180.001 178.499 180.791 180.846 181.159 183.509C181.25 184.271 181.042 184.949 180.533 185.542C180.024 186.135 179.388 186.477 178.625 186.568L150.388 189.958L148.509 185.18L176.032 181.876L175.008 183.014L174.819 181.442C174.394 179.51 173.526 177.923 172.217 176.678C170.949 175.38 169.459 174.447 167.747 173.879C166.083 173.305 164.369 173.124 162.606 173.336C161.176 173.507 159.778 173.941 158.411 174.637C157.086 175.279 155.921 176.241 154.914 177.522C153.95 178.75 153.216 180.288 152.712 182.138C152.257 183.981 152.178 186.142 152.475 188.62C152.807 191.384 153.647 193.749 154.995 195.714C156.391 197.674 158.164 199.153 160.314 200.152C162.459 201.103 164.865 201.418 167.534 201.098C169.202 200.898 170.63 200.509 171.818 199.931C173.005 199.353 174.015 198.701 174.846 197.972C175.671 197.196 176.354 196.438 176.893 195.696C177.461 195.193 178.031 194.907 178.603 194.838C179.318 194.752 179.918 194.922 180.404 195.347C180.938 195.766 181.245 196.31 181.325 196.977C181.423 197.787 181.127 198.548 180.439 199.259C179.282 200.896 177.628 202.424 175.478 203.843C173.322 205.214 170.957 206.053 168.384 206.362ZM231.284 159.942C232.047 159.85 232.722 160.035 233.309 160.496C233.944 160.952 234.313 161.609 234.416 162.467C234.439 162.657 234.44 162.875 234.421 163.119C234.444 163.309 234.42 163.506 234.347 163.708L227.14 196.698C226.976 197.346 226.628 197.871 226.096 198.273C225.612 198.67 225.058 198.882 224.432 198.908C223.33 198.992 222.422 198.473 221.707 197.35L209.988 175.842L211.443 175.884L205.98 199.238C205.599 200.493 204.839 201.212 203.701 201.397C203.087 201.519 202.474 201.448 201.862 201.183C201.251 200.918 200.812 200.487 200.547 199.89L185.522 169.569C185.327 169.157 185.207 168.761 185.161 168.38C185.07 167.617 185.252 166.918 185.707 166.284C186.163 165.649 186.844 165.277 187.749 165.168C188.321 165.1 188.862 165.18 189.373 165.408C189.884 165.637 190.272 166.05 190.537 166.647L203.569 193.654L202.059 193.762L207.849 171.312C208.182 170.064 208.992 169.362 210.279 169.208C210.946 169.128 211.491 169.231 211.912 169.519C212.375 169.754 212.736 170.145 212.996 170.694L224.292 191.093L222.522 191.451L228.782 162.055C229.068 160.812 229.902 160.108 231.284 159.942ZM251.448 192.692C251.545 193.502 251.342 194.227 250.839 194.868C250.384 195.503 249.751 195.869 248.94 195.966C248.083 196.069 247.357 195.866 246.764 195.357C246.171 194.848 245.826 194.189 245.729 193.378L241.919 161.638C241.821 160.828 242.003 160.129 242.465 159.542C242.968 158.902 243.625 158.533 244.435 158.436C245.245 158.338 245.947 158.544 246.539 159.053C247.174 159.509 247.54 160.142 247.638 160.952L251.448 192.692ZM243.86 153.646C242.668 153.789 241.758 153.657 241.129 153.249C240.5 152.841 240.125 152.136 240.005 151.136L239.885 150.135C239.765 149.134 239.986 148.358 240.548 147.807C241.111 147.256 241.964 146.912 243.107 146.775C244.251 146.637 245.138 146.773 245.767 147.181C246.396 147.589 246.771 148.293 246.891 149.294L247.011 150.294C247.131 151.295 246.91 152.071 246.348 152.622C245.833 153.167 245.004 153.509 243.86 153.646ZM275.896 154.296C279.137 153.907 281.767 154.268 283.786 155.379C285.805 156.491 287.33 158.12 288.361 160.269C289.44 162.411 290.146 164.865 290.478 167.629L292.889 187.717C292.986 188.527 292.783 189.252 292.28 189.893C291.825 190.528 291.192 190.894 290.382 190.991C289.571 191.088 288.846 190.885 288.205 190.382C287.613 189.873 287.267 189.214 287.17 188.403L284.776 168.459C284.558 166.648 284.078 165.062 283.334 163.7C282.633 162.286 281.587 161.227 280.197 160.524C278.85 159.767 277.079 159.52 274.887 159.783C272.886 160.024 271.105 160.697 269.546 161.802C267.981 162.861 266.787 164.188 265.963 165.786C265.134 167.336 264.828 169.016 265.045 170.827L267.44 190.772C267.537 191.582 267.334 192.308 266.831 192.948C266.375 193.583 265.742 193.949 264.932 194.046C264.122 194.144 263.397 193.941 262.756 193.437C262.163 192.928 261.818 192.269 261.721 191.459L257.979 160.29C257.882 159.48 258.064 158.782 258.525 158.194C259.028 157.554 259.685 157.185 260.495 157.088C261.353 156.985 262.078 157.188 262.671 157.697C263.259 158.158 263.601 158.794 263.698 159.604L264.307 164.679L263.066 166.424C263.156 165.156 263.555 163.851 264.264 162.509C264.968 161.119 265.903 159.847 267.069 158.691C268.236 157.536 269.571 156.578 271.075 155.817C272.574 155.009 274.181 154.502 275.896 154.296ZM327.922 132.822C328.733 132.724 329.434 132.93 330.027 133.439C330.662 133.895 331.028 134.528 331.125 135.338L336.781 182.447C336.878 183.258 336.675 183.983 336.172 184.624C335.716 185.258 335.083 185.624 334.273 185.722C333.415 185.825 332.69 185.622 332.097 185.113C331.504 184.604 331.159 183.944 331.062 183.134L330.247 176.343L331.545 175.679C331.682 176.823 331.471 178.081 330.91 179.454C330.344 180.779 329.507 182.064 328.4 183.309C327.292 184.553 325.924 185.636 324.294 186.557C322.711 187.472 320.943 188.047 318.989 188.282C315.796 188.665 312.789 188.18 309.968 186.827C307.194 185.468 304.87 183.426 302.996 180.702C301.17 177.972 300.033 174.749 299.587 171.031C299.135 167.266 299.473 163.842 300.601 160.757C301.778 157.667 303.555 155.157 305.934 153.228C308.307 151.251 311.067 150.074 314.212 149.696C316.214 149.456 318.136 149.563 319.98 150.019C321.823 150.474 323.457 151.197 324.881 152.186C326.353 153.17 327.553 154.307 328.481 155.597C329.41 156.888 329.957 158.224 330.123 159.606L328.213 159.4L325.406 136.024C325.309 135.214 325.491 134.515 325.952 133.928C326.408 133.293 327.065 132.925 327.922 132.822ZM318.998 182.914C321.381 182.628 323.406 181.781 325.074 180.372C326.784 178.91 328.013 177.07 328.762 174.853C329.553 172.583 329.789 170.113 329.468 167.444C329.142 164.728 328.329 162.384 327.029 160.413C325.776 158.436 324.149 156.963 322.147 155.995C320.188 154.973 318.016 154.606 315.634 154.892C313.298 155.172 311.276 156.043 309.566 157.506C307.898 158.914 306.666 160.73 305.869 162.953C305.072 165.176 304.837 167.646 305.163 170.362C305.478 172.983 306.288 175.303 307.594 177.322C308.894 179.293 310.524 180.789 312.484 181.811C314.491 182.827 316.662 183.195 318.998 182.914Z" fill="#00A4DC"/>
<path d="M90.1144 125C90.1144 123.164 100.832 117.253 102.641 118.154C104.451 119.055 104.431 130.955 102.641 131.846C100.852 132.737 90.1153 126.839 90.1144 125Z" fill="white"/>
<path d="M74.0934 125C74.0934 119.469 106.386 101.657 111.839 104.373C117.293 107.089 117.23 142.946 111.839 145.632C106.449 148.319 74.0934 130.536 74.0934 125ZM107.107 138.522C110.641 136.762 110.68 113.269 107.107 111.489C103.534 109.709 82.3752 121.38 82.3752 125.005C82.3752 128.63 103.573 140.282 107.107 138.522Z" fill="white"/>
<path d="M136.114 125C136.114 123.164 146.832 117.253 148.641 118.154C150.451 119.055 150.431 130.955 148.641 131.846C146.852 132.737 136.115 126.839 136.114 125Z" fill="white"/>
<path d="M120.093 125C120.093 119.469 152.386 101.657 157.839 104.373C163.293 107.089 163.23 142.946 157.839 145.632C152.449 148.319 120.093 130.536 120.093 125ZM153.107 138.522C156.641 136.762 156.68 113.269 153.107 111.489C149.534 109.709 128.375 121.38 128.375 125.005C128.375 128.63 149.573 140.282 153.107 138.522Z" fill="white"/>
<defs>
<linearGradient id="paint0_linear_302_901" x1="29.9854" y1="58.0192" x2="134.946" y2="118.617" gradientUnits="userSpaceOnUse">
<stop stop-color="#AA5CC3"/>
<stop offset="1" stop-color="#00A4DC"/>
</linearGradient>
<linearGradient id="paint1_linear_302_901" x1="29.9854" y1="58.0193" x2="134.946" y2="118.617" gradientUnits="userSpaceOnUse">
<stop stop-color="#AA5CC3"/>
<stop offset="1" stop-color="#00A4DC"/>
</linearGradient>
</defs>
</svg>
