<svg
  width="171"
  height="166"
  viewBox="0 0 171 166"
  fill="none"
  xmlns="http://www.w3.org/2000/svg"
>
  <path
    d="M75.3031 60.5024C69.7435 60.5024 51.8461 92.949 54.577 98.427C57.3078 103.905 93.3311 103.845 96.0293 98.427C98.7275 93.0088 80.8628 60.5052 75.3031 60.5024Z"
    fill="url(#paint0_linear_301_828)"
  />
  <path
    d="M75.3032 12C58.5509 12 4.62473 109.764 12.8472 126.274C21.0697 142.784 129.626 142.594 137.759 126.274C145.892 109.954 92.0527 12 75.3032 12ZM116.233 111.948C110.905 122.646 39.7803 122.765 34.3894 111.948C28.9984 101.131 64.3362 37.0727 75.3113 37.0727C86.2864 37.0727 121.562 101.248 116.233 111.948Z"
    fill="url(#paint1_linear_301_828)"
  />
  <path
    d="M94.3142 130.66C94.3142 128.823 105.032 122.913 106.841 123.814C108.651 124.715 108.631 136.615 106.841 137.506C105.051 138.397 94.3151 132.499 94.3142 130.66Z"
    fill="white"
  />
  <path
    d="M78.2932 130.66C78.2932 125.129 110.586 107.317 116.039 110.033C121.493 112.749 121.43 148.606 116.039 151.293C110.649 153.979 78.2932 136.196 78.2932 130.66ZM111.307 144.182C114.841 142.422 114.88 118.929 111.307 117.149C107.734 115.369 86.575 127.04 86.575 130.665C86.575 134.291 107.773 145.942 111.307 144.182Z"
    fill="white"
  />
  <path
    d="M140.314 130.66C140.314 128.823 151.032 122.913 152.841 123.814C154.651 124.715 154.631 136.615 152.841 137.506C151.051 138.397 140.315 132.499 140.314 130.66Z"
    fill="white"
  />
  <path
    d="M124.293 130.66C124.293 125.129 156.586 107.317 162.039 110.033C167.493 112.749 167.43 148.606 162.039 151.293C156.649 153.979 124.293 136.196 124.293 130.66ZM157.307 144.182C160.841 142.422 160.88 118.929 157.307 117.149C153.734 115.369 132.575 127.04 132.575 130.665C132.575 134.291 153.773 145.942 157.307 144.182Z"
    fill="white"
  />
  <defs>
    <linearGradient
      id="paint0_linear_301_828"
      x1="34.1853"
      y1="63.6794"
      x2="139.146"
      y2="124.278"
      gradientUnits="userSpaceOnUse"
    >
      <stop stop-color="#AA5CC3" />
      <stop offset="1" stop-color="#00A4DC" />
    </linearGradient>
    <linearGradient
      id="paint1_linear_301_828"
      x1="34.1854"
      y1="63.6794"
      x2="139.146"
      y2="124.278"
      gradientUnits="userSpaceOnUse"
    >
      <stop stop-color="#AA5CC3" />
      <stop offset="1" stop-color="#00A4DC" />
    </linearGradient>
  </defs>
</svg>
